<?xml version="1.0" encoding="UTF-8"?><!DOCTYPE svg PUBLIC "-//W3C//DTD SVG 1.1//EN" "http://www.w3.org/Graphics/SVG/1.1/DTD/svg11.dtd"><svg xmlns="http://www.w3.org/2000/svg" xmlns:xlink="http://www.w3.org/1999/xlink" class="hide-svg"><symbol id="activity"><path d="M19 21.838l2.051-6.154A1 1 0 0122 15h4a1 1 0 010 2h-3.28l-2.771 8.316c-.304.912-1.594.912-1.898 0L13 10.162l-2.051 6.154A1 1 0 0110 17H6a1 1 0 010-2h3.28l2.771-8.316c.304-.912 1.594-.912 1.898 0L19 21.838z" fill-rule="evenodd"/></symbol><symbol id="alert-circle"><g fill-rule="evenodd"><path d="M16 27C9.925 27 5 22.075 5 16S9.925 5 16 5s11 4.925 11 11-4.925 11-11 11zm0-2a9 9 0 100-18 9 9 0 000 18z"/><path d="M15 12a1 1 0 012 0v4a1 1 0 01-2 0v-4zM16 19a1 1 0 110 2 1 1 0 010-2z"/></g></symbol><symbol id="alert-triangle"><g fill-rule="evenodd"><path d="M13.432 7.346a3.002 3.002 0 015.136 0L27.046 21.5A3 3 0 0124.47 26H7.519a3 3 0 01-2.557-4.514l8.47-14.14zM6.686 22.5A1 1 0 007.53 24h16.929a1 1 0 00.863-1.486L16.855 8.379a1 1 0 00-1.709-.002L6.686 22.5z"/><path d="M15 13a1 1 0 012 0v4a1 1 0 01-2 0v-4zM16 19a1 1 0 110 2 1 1 0 010-2z"/></g></symbol><symbol id="align-center"><g fill-rule="evenodd"><path d="M22 13a1 1 0 010 2H10a1 1 0 110-2h12zM25 9a1 1 0 010 2H7a1 1 0 110-2h18zM25 17a1 1 0 010 2H7a1 1 0 110-2h18zM22 21a1 1 0 010 2H10a1 1 0 010-2h12z"/></g></symbol><symbol id="align-justify"><g fill-rule="evenodd"><path d="M25 13a1 1 0 010 2H7a1 1 0 110-2h18zM25 9a1 1 0 010 2H7a1 1 0 110-2h18zM25 17a1 1 0 010 2H7a1 1 0 110-2h18zM25 21a1 1 0 010 2H7a1 1 0 010-2h18z"/></g></symbol><symbol id="align-left"><g fill-rule="evenodd"><path d="M21 13a1 1 0 010 2H7a1 1 0 110-2h14zM25 9a1 1 0 010 2H7a1 1 0 110-2h18zM25 17a1 1 0 010 2H7a1 1 0 110-2h18zM21 21a1 1 0 010 2H7a1 1 0 010-2h14z"/></g></symbol><symbol id="align-right"><g fill-rule="evenodd"><path d="M25 13a1 1 0 010 2H11a1 1 0 110-2h14zM25 9a1 1 0 010 2H7a1 1 0 110-2h18zM25 17a1 1 0 010 2H7a1 1 0 110-2h18zM25 21a1 1 0 010 2H11a1 1 0 010-2h14z"/></g></symbol><symbol id="arrow-down-left"><g fill-rule="evenodd"><path d="M21.293 9.293a1 1 0 011.414 1.414l-12 12a1 1 0 11-1.414-1.414l12-12z"/><path d="M11 21h8a1 1 0 010 2h-9a1 1 0 01-1-1v-9a1 1 0 112 0v8z"/></g></symbol><symbol id="arrow-down-right"><g fill-rule="evenodd"><path d="M9.293 10.707a1 1 0 111.414-1.414l12 12a1 1 0 01-1.414 1.414l-12-12z"/><path d="M21 21v-8a1 1 0 012 0v9a1 1 0 01-1 1h-9a1 1 0 010-2h8z"/></g></symbol><symbol id="arrow-down"><g fill-rule="evenodd"><path d="M15 8a1 1 0 112 0v16a1 1 0 01-2 0V8z"/><path d="M21.293 17.293a1 1 0 011.414 1.414l-6 6a1 1 0 01-1.414 0l-6-6a1 1 0 011.414-1.414L16 22.586l5.293-5.293z"/></g></symbol><symbol id="arrow-left"><g fill-rule="evenodd"><path d="M24 15a1 1 0 010 2H8a1 1 0 110-2h16z"/><path d="M9.414 16l5.293 5.293a1 1 0 01-1.414 1.414l-6-6a1 1 0 010-1.414l6-6a1 1 0 111.414 1.414L9.414 16z"/></g></symbol><symbol id="arrow-right"><g fill-rule="evenodd"><path d="M8 17a1 1 0 110-2h16a1 1 0 010 2H8z"/><path d="M17.293 10.707a1 1 0 011.414-1.414l6 6a1 1 0 010 1.414l-6 6a1 1 0 01-1.414-1.414L22.586 16l-5.293-5.293z"/></g></symbol><symbol id="arrow-up"><g fill-rule="evenodd"><path d="M17 24a1 1 0 01-2 0V8a1 1 0 112 0v16z"/><path d="M16 9.414l-5.293 5.293a1 1 0 01-1.414-1.414l6-6a1 1 0 011.414 0l6 6a1 1 0 11-1.414 1.414L16 9.414z"/></g></symbol><symbol id="at-sign"><g fill-rule="evenodd"><path d="M17 21a5 5 0 110-10 5 5 0 010 10zm0-2a3 3 0 100-6 3 3 0 000 6z"/><path d="M20 16a1 1 0 012 0v1a2 2 0 104 0v-1a9 9 0 10-3.528 7.146 1 1 0 111.216 1.588A11 11 0 1128 16v1a4 4 0 11-8 0v-1z"/></g></symbol><symbol id="bar-chart"><g fill-rule="evenodd"><path d="M15 8v16h2V8h-2zm-1-2h4a1 1 0 011 1v18a1 1 0 01-1 1h-4a1 1 0 01-1-1V7a1 1 0 011-1zM23 13v11h2V13h-2zm-1-2h4a1 1 0 011 1v13a1 1 0 01-1 1h-4a1 1 0 01-1-1V12a1 1 0 011-1zM7 18v6h2v-6H7zm-1-2h4a1 1 0 011 1v8a1 1 0 01-1 1H6a1 1 0 01-1-1v-8a1 1 0 011-1z"/></g></symbol><symbol id="bell"><path d="M22 18v-5a6 6 0 10-12 0v5c0 .729-.195 1.412-.535 2h13.07A3.982 3.982 0 0122 18zm4 4H6c-1.333 0-1.333-2 0-2a2 2 0 002-2v-5a8 8 0 1116 0v5a2 2 0 002 2c1.333 0 1.333 2 0 2zm-7.405 3.502a3 3 0 01-5.19 0A1 1 0 0114.27 24h3.46a1 1 0 01.865 1.502z" fill-rule="evenodd"/></symbol><symbol id="bolder"><path d="M12.465 8H8a1 1 0 00-1 1v14a1 1 0 001 1h16a1 1 0 001-1V12a1 1 0 00-1-1h-9a1 1 0 01-.832-.445L12.465 8zm3.07 1H24a3 3 0 013 3v11a3 3 0 01-3 3H8a3 3 0 01-3-3V9a3 3 0 013-3h5a1 1 0 01.832.445L15.535 9z" fill-rule="evenodd"/></symbol><symbol id="briefcase"><g fill-rule="evenodd"><path d="M8 12a1 1 0 00-1 1v10a1 1 0 001 1h16a1 1 0 001-1V13a1 1 0 00-1-1H8zm0-2h16a3 3 0 013 3v10a3 3 0 01-3 3H8a3 3 0 01-3-3V13a3 3 0 013-3z"/><path d="M21 25a1 1 0 01-2 0V9a1 1 0 00-1-1h-4a1 1 0 00-1 1v16a1 1 0 01-2 0V9a3 3 0 013-3h4a3 3 0 013 3v16z"/></g></symbol><symbol id="calendar"><g fill-rule="evenodd"><path d="M9 9a1 1 0 00-1 1v14a1 1 0 001 1h14a1 1 0 001-1V10a1 1 0 00-1-1H9zm0-2h14a3 3 0 013 3v14a3 3 0 01-3 3H9a3 3 0 01-3-3V10a3 3 0 013-3z"/><path d="M19 6a1 1 0 012 0v4a1 1 0 01-2 0V6zM11 6a1 1 0 112 0v4a1 1 0 11-2 0V6zM7 15a1 1 0 110-2h18a1 1 0 010 2H7z"/></g></symbol><symbol id="check"><path d="M13 19.586L23.293 9.293a1 1 0 011.414 1.414l-11 11a1 1 0 01-1.414 0l-5-5a1 1 0 111.414-1.414L13 19.586z" fill-rule="evenodd"/></symbol><symbol id="chevron-down"><path d="M16 17.586l5.293-5.293a1 1 0 011.414 1.414l-6 6a1 1 0 01-1.414 0l-6-6a1 1 0 111.414-1.414L16 17.586z" fill-rule="evenodd"/></symbol><symbol id="chevron-left"><path d="M14.414 16l5.293 5.293a1 1 0 01-1.414 1.414l-6-6a1 1 0 010-1.414l6-6a1 1 0 111.414 1.414L14.414 16z" fill-rule="evenodd"/></symbol><symbol id="chevron-right"><path d="M17.586 16l-5.293-5.293a1 1 0 111.414-1.414l6 6a1 1 0 010 1.414l-6 6a1 1 0 11-1.414-1.414L17.586 16z" fill-rule="evenodd"/></symbol><symbol id="chevron-up"><path d="M16 14.414l-5.293 5.293a1 1 0 01-1.414-1.414l6-6a1 1 0 011.414 0l6 6a1 1 0 11-1.414 1.414L16 14.414z" fill-rule="evenodd"/></symbol><symbol id="credit-card"><g fill-rule="evenodd"><path d="M7 9a1 1 0 00-1 1v12a1 1 0 001 1h18a1 1 0 001-1V10a1 1 0 00-1-1H7zm0-2h18a3 3 0 013 3v12a3 3 0 01-3 3H7a3 3 0 01-3-3V10a3 3 0 013-3z"/><path d="M5 15a1 1 0 110-2h22a1 1 0 010 2H5z"/></g></symbol><symbol id="delete"><g fill-rule="evenodd"><path d="M21 0a3 3 0 013 3v12a3 3 0 01-3 3H8a1 1 0 01-.753-.341l-7-8a1 1 0 010-1.318l7-8A1 1 0 018 0h13zM8.454 16H21a1 1 0 001-1V3a1 1 0 00-1-1H8.454L2.329 9l6.125 7z"/><path d="M17.293 5.293a1 1 0 011.414 1.414l-6 6a1 1 0 01-1.414-1.414l6-6z"/><path d="M11.293 6.707a1 1 0 111.414-1.414l6 6a1 1 0 01-1.414 1.414l-6-6z"/></g></symbol><symbol id="download"><g fill-rule="evenodd"><path d="M6 21a1 1 0 012 0v3a1 1 0 001 1h14a1 1 0 001-1v-3a1 1 0 012 0v3a3 3 0 01-3 3H9a3 3 0 01-3-3v-3z"/><path d="M19.293 15.293a1 1 0 011.414 1.414l-4 4a1 1 0 01-1.414 0l-4-4a1 1 0 011.414-1.414L16 18.586l3.293-3.293z"/><path d="M15 6a1 1 0 112 0v14a1 1 0 01-2 0V6z"/></g></symbol><symbol id="file"><g fill-rule="evenodd"><path d="M17 5a1 1 0 01.707.293l7 7A1 1 0 0125 13v11a3 3 0 01-3 3H10a3 3 0 01-3-3V8a3 3 0 013-3h7zm-.414 2H10a1 1 0 00-1 1v16a1 1 0 001 1h12a1 1 0 001-1V13.414L16.586 7z"/><path d="M18 12h6a1 1 0 010 2h-7a1 1 0 01-1-1V6a1 1 0 112 0v6z"/></g></symbol><symbol id="home"><g fill-rule="evenodd"><path d="M8 13.49V24a1 1 0 001 1h14a1 1 0 001-1V13.49l-8-6.223-8 6.222zm-1.614-1.28l9-7a1 1 0 011.228 0l9 7A1 1 0 0126 13v11a3 3 0 01-3 3H9a3 3 0 01-3-3V13a1 1 0 01.386-.79z"/><path d="M14 17v9a1 1 0 01-2 0V16a1 1 0 011-1h6a1 1 0 011 1v10a1 1 0 01-2 0v-9h-4z"/></g></symbol><symbol id="list"><g fill-rule="evenodd"><path d="M10 11a1 1 0 110-2h13a1 1 0 010 2H10zM10 17a1 1 0 110-2h13a1 1 0 010 2H10zM10 23a1 1 0 010-2h13a1 1 0 010 2H10z"/></g></symbol><symbol id="log-in"><g fill-rule="evenodd"><path d="M12 22a1 1 0 010-2h5a1 1 0 001-1V3a1 1 0 00-1-1h-5a1 1 0 010-2h5a3 3 0 013 3v16a3 3 0 01-3 3h-5z"/><path d="M11.586 11L8.293 7.707a1 1 0 011.414-1.414l4 4a1 1 0 010 1.414l-4 4a1 1 0 11-1.414-1.414L11.586 11z"/><path d="M13 10a1 1 0 010 2H1a1 1 0 010-2h12z"/></g></symbol><symbol id="mail"><g fill-rule="evenodd"><path d="M8 9c-.548 0-1 .452-1 1v12c0 .548.452 1 1 1h16c.548 0 1-.452 1-1V10c0-.548-.452-1-1-1H8zm0-2h16c1.652 0 3 1.348 3 3v12c0 1.652-1.348 3-3 3H8c-1.652 0-3-1.348-3-3V10c0-1.652 1.348-3 3-3z"/><path d="M16 15.78l9.427-6.6a1 1 0 111.146 1.64l-10 7a1 1 0 01-1.146 0l-10-7a1 1 0 111.146-1.64L16 15.78z"/></g></symbol><symbol id="map-pin"><g fill-rule="evenodd"><path d="M16.783 25.17a29.155 29.155 0 002.991-2.733C22.427 19.637 24 16.753 24 14a8 8 0 10-16 0c0 2.753 1.573 5.636 4.226 8.437A29.155 29.155 0 0016 25.773c.242-.18.505-.38.783-.602zm4.443-1.357a31.132 31.132 0 01-4.254 3.726c-.195.141-.337.24-.417.293a1 1 0 01-1.11 0c-.08-.054-.222-.152-.417-.293a31.132 31.132 0 01-4.254-3.726C7.802 20.676 6 17.372 6 14 6 8.477 10.477 4 16 4s10 4.477 10 10c0 3.372-1.802 6.676-4.774 9.813z"/><path d="M16 18a4 4 0 110-8 4 4 0 010 8zm0-2a2 2 0 100-4 2 2 0 000 4z"/></g></symbol><symbol id="percent"><g fill-rule="evenodd"><path d="M22.293 8.293a1 1 0 011.414 1.414l-14 14a1 1 0 11-1.414-1.414l14-14zM10.5 14a3.5 3.5 0 110-7 3.5 3.5 0 010 7zm0-2a1.5 1.5 0 100-3 1.5 1.5 0 000 3zM21.5 25a3.5 3.5 0 110-7 3.5 3.5 0 010 7zm0-2a1.5 1.5 0 100-3 1.5 1.5 0 000 3z"/></g></symbol><symbol id="phone"><path d="M25 20.92c.013-.532-.357-.969-.85-1.039a13.845 13.845 0 01-3.032-.755.998.998 0 00-1.05.221l-1.27 1.27a1 1 0 01-1.202.162 17 17 0 01-6.375-6.375 1 1 0 01.162-1.201l1.266-1.266a1 1 0 00.224-1.057 13.817 13.817 0 01-.753-3.02A1.003 1.003 0 0011.11 7h-3a1 1 0 00-.996 1.074 18.8 18.8 0 002.92 8.24 18.511 18.511 0 005.7 5.697 18.774 18.774 0 008.176 2.913A1 1 0 0025 23.92v-3zm2 .011v2.985a3 3 0 01-3.288 2.998 20.78 20.78 0 01-9.058-3.22 20.49 20.49 0 01-6.303-6.3A20.805 20.805 0 015.124 8.27 3 3 0 018.11 5h2.99a3.003 3.003 0 013.001 2.59c.117.885.334 1.754.645 2.588a3.002 3.002 0 01-.679 3.17l-.717.716a15 15 0 004.586 4.586l.72-.721a3 3 0 013.164-.676c.836.312 1.705.529 2.6.647A3 3 0 0127 20.93z" fill-rule="evenodd"/></symbol><symbol id="pie-chart"><g fill-rule="evenodd"><path d="M25.289 19.5a1 1 0 011.842.78A11 11 0 1112.6 5.912a1 1 0 11.8 1.834A9 9 0 1025.289 19.5z"/><path d="M28 16a1 1 0 01-1 1H17a1 1 0 01-1-1V6a1 1 0 011-1 11 11 0 0111 11zm-4.636-6.364A9 9 0 0018 7.056V15h7.944a9 9 0 00-2.58-5.364z"/></g></symbol><symbol id="play"><path d="M11 8.832v14.336L22.15 16 11 8.832zm-.46-2.673l14 9a1 1 0 010 1.682l-14 9A1 1 0 019 25V7a1 1 0 011.54-.841z" fill-rule="evenodd"/></symbol><symbol id="plus-circle"><g fill-rule="evenodd"><path d="M16 27C9.925 27 5 22.075 5 16S9.925 5 16 5s11 4.925 11 11-4.925 11-11 11zm0-2a9 9 0 100-18 9 9 0 000 18z"/><path d="M15 12a1 1 0 012 0v8a1 1 0 01-2 0v-8z"/><path d="M12 17a1 1 0 010-2h8a1 1 0 010 2h-8z"/></g></symbol><symbol id="power"><g fill-rule="evenodd"><path d="M22.653 10.347a1 1 0 111.414-1.414c3.905 3.906 3.904 10.237-.001 14.141-3.905 3.905-10.237 3.905-14.142 0C6.02 19.17 6.018 12.84 9.923 8.933a1 1 0 111.414 1.414 8 8 0 1011.316 0z"/><path d="M16 5a1 1 0 012 0v10a1 1 0 01-2 0V5z"/></g></symbol><symbol id="search"><g fill-rule="evenodd"><path d="M14.5 23a8.5 8.5 0 110-17 8.5 8.5 0 010 17zm0-2a6.5 6.5 0 100-13 6.5 6.5 0 000 13z"/><path d="M25.707 24.293a1 1 0 01-1.414 1.414l-5.2-5.2a1 1 0 011.414-1.414l5.2 5.2z"/></g></symbol><symbol id="settings"><g fill-rule="evenodd"><path d="M16 20a4 4 0 110-8 4 4 0 010 8zm0-2a2 2 0 100-4 2 2 0 000 4z"/><path d="M24.91 17H25a1 1 0 000-2h-.174a2.65 2.65 0 01-2.425-1.606 1 1 0 01-.073-.264 2.655 2.655 0 01.615-2.737l.06-.06a1 1 0 10-1.416-1.416l-.068.068a2.646 2.646 0 01-2.913.534A2.651 2.651 0 0117 7.09V7a1 1 0 00-2 0v.174a2.65 2.65 0 01-1.606 2.425 1 1 0 01-.264.073 2.655 2.655 0 01-2.737-.615l-.06-.06a1 1 0 10-1.416 1.416l.068.068c.757.774.967 1.932.554 2.864A2.657 2.657 0 017.09 15.08H7a1 1 0 000 2h.174a2.646 2.646 0 012.42 1.596 2.654 2.654 0 01-.537 2.931l-.06.06a1 1 0 101.416 1.416l.068-.068c.774-.757 1.932-.967 2.864-.554a2.657 2.657 0 011.735 2.449V25a1 1 0 002 0v-.174a2.646 2.646 0 011.596-2.42 2.654 2.654 0 012.931.537l.06.06a1 1 0 101.416-1.416l-.068-.068a2.65 2.65 0 01-.532-2.918A2.651 2.651 0 0124.91 17zm-2.425 1.596l-.004.01a2.635 2.635 0 01.004-.01zm1.814-5.88a.647.647 0 00.531.284H25a3 3 0 010 6h-.086a.65.65 0 00-.595.394.65.65 0 00.118.719l.06.06a3 3 0 11-4.244 4.244l-.052-.052a.654.654 0 00-.727-.126.649.649 0 00-.394.591V25a3 3 0 01-6 0 .698.698 0 00-.484-.685.647.647 0 00-.709.122l-.06.06a3 3 0 11-4.244-4.244l.052-.052a.654.654 0 00.126-.727.649.649 0 00-.591-.394H7a3 3 0 010-6 .698.698 0 00.685-.484.647.647 0 00-.122-.709l-.06-.06a3 3 0 114.244-4.244l.052.052a.65.65 0 00.717.13 1 1 0 01.2-.064A.647.647 0 0013 7.17V7a3 3 0 016 0v.086c.001.26.156.493.404.6a.647.647 0 00.709-.123l.06-.06a3 3 0 114.244 4.244l-.052.052a.65.65 0 00-.13.717 1 1 0 01.064.2z"/></g></symbol><symbol id="shield"><path d="M16.447 26.894a1 1 0 01-.894 0 17.31 17.31 0 01-1.333-.765 22.465 22.465 0 01-2.879-2.126C8.646 21.643 7 18.969 7 16V8a1 1 0 01.757-.97l8-2a1 1 0 01.486 0l8 2A1 1 0 0125 8v8c0 2.97-1.646 5.644-4.341 8.003a22.465 22.465 0 01-2.879 2.126 17.31 17.31 0 01-1.333.765zm.273-2.46a20.49 20.49 0 002.621-1.937C21.646 20.481 23 18.281 23 16V8.78l-7-1.75-7 1.75V16c0 2.28 1.354 4.481 3.659 6.497A20.49 20.49 0 0016 24.863c.221-.126.463-.269.72-.43z" fill-rule="evenodd"/></symbol><symbol id="sun"><g fill-rule="evenodd"><path d="M16 22a6 6 0 110-12 6 6 0 010 12zm0-2a4 4 0 100-8 4 4 0 000 8zM15 5a1 1 0 012 0v2a1 1 0 01-2 0V5zM15 25a1 1 0 012 0v2a1 1 0 01-2 0v-2zM7.513 8.927a1 1 0 011.414-1.414l1.42 1.42a1 1 0 01-1.414 1.414l-1.42-1.42zM21.653 23.067a1 1 0 011.414-1.414l1.42 1.42a1 1 0 01-1.414 1.414l-1.42-1.42zM5 17a1 1 0 010-2h2a1 1 0 010 2H5zM25 17a1 1 0 010-2h2a1 1 0 010 2h-2zM8.927 24.487a1 1 0 11-1.414-1.414l1.42-1.42a1 1 0 111.414 1.414l-1.42 1.42zM23.067 10.347a1 1 0 01-1.414-1.414l1.42-1.42a1 1 0 011.414 1.414l-1.42 1.42z"/></g></symbol><symbol id="tag"><path d="M23.883 15.297L15.586 7H7v8.585l8.297 8.288a1 1 0 001.416 0l7.169-7.169a1 1 0 000-1.407zm1.416 2.818l-7.171 7.172a3 3 0 01-4.245 0l-8.59-8.58A1 1 0 015 16V6a1 1 0 011-1h10a1 1 0 01.707.293l8.592 8.592a3 3 0 010 4.23z" fill-rule="evenodd"/></symbol><symbol id="target"><g fill-rule="evenodd"><path d="M16 27C9.925 27 5 22.075 5 16S9.925 5 16 5s11 4.925 11 11-4.925 11-11 11zm0-2a9 9 0 100-18 9 9 0 000 18z"/><path d="M16 23a7 7 0 110-14 7 7 0 010 14zm0-2a5 5 0 100-10 5 5 0 000 10z"/><path d="M16 19a3 3 0 110-6 3 3 0 010 6zm0-2a1 1 0 100-2 1 1 0 000 2z"/></g></symbol><symbol id="x"><g fill-rule="evenodd"><path d="M21.293 9.293a1 1 0 011.414 1.414l-12 12a1 1 0 11-1.414-1.414l12-12z"/><path d="M9.293 10.707a1 1 0 111.414-1.414l12 12a1 1 0 01-1.414 1.414l-12-12z"/></g></symbol><symbol id="youtube" viewBox="0 0 24 24"><path class="youtube-bg-red" d="M12 19c-.1 0-6.3 0-7.8-.4-.9-.2-1.5-.9-1.8-1.8-.3-1.6-.4-3.2-.4-4.8s.1-3.2.4-4.8c.2-.9.9-1.5 1.8-1.8C5.7 5 11.7 5 12 5c.1 0 6.3 0 7.8.4.9.2 1.5.9 1.8 1.8.3 1.6.4 3.2.4 4.8s-.1 3.2-.4 4.8c-.2.9-.9 1.5-1.8 1.8-1.5.4-7.5.4-7.8.4zm-2-4l5.2-3L10 9v6z"/><path class="youtube-play" d="M10 15l5.2-3L10 9v6z"/></symbol></svg>